<svg id="svg" version="1.1" xmlns="http://www.w3.org/2000/svg" xmlns:xlink="http://www.w3.org/1999/xlink" width="400" height="320" viewBox="0, 0, 400,320"><g id="svgg"><path id="path0" d="M166.487 55.107 L 133.443 74.219 133.440 112.609 L 133.438 150.999 134.453 150.404 C 135.012 150.076,140.073 147.153,145.701 143.908 L 155.934 138.007 156.014 112.550 L 156.094 87.092 177.926 74.483 C 189.934 67.549,199.872 61.875,200.011 61.875 C 200.149 61.875,205.002 64.615,210.793 67.964 C 216.585 71.313,221.413 74.008,221.521 73.953 C 221.630 73.898,229.381 69.435,238.745 64.036 L 255.772 54.219 243.695 54.137 L 231.617 54.055 215.937 44.996 C 207.312 40.014,200.093 35.951,199.894 35.967 C 199.694 35.983,184.661 44.596,166.487 55.107 M255.311 80.769 L 244.219 87.162 244.063 112.676 L 243.906 138.190 222.032 150.818 C 208.979 158.353,199.968 163.373,199.688 163.266 C 199.430 163.168,194.585 160.408,188.922 157.133 C 181.240 152.691,178.502 151.251,178.140 151.465 C 177.874 151.622,170.230 156.033,161.153 161.266 L 144.649 170.781 156.465 170.938 L 168.281 171.094 183.906 180.144 C 192.500 185.122,199.746 189.195,200.007 189.196 C 200.269 189.196,215.348 180.623,233.515 170.145 L 266.546 151.094 266.554 112.734 C 266.559 91.637,266.527 74.375,266.483 74.375 C 266.440 74.375,261.412 77.252,255.311 80.769 M189.453 94.453 L 179.063 100.456 179.068 112.650 L 179.074 124.844 189.544 130.875 L 200.013 136.906 210.470 130.875 L 220.927 124.844 220.932 112.649 L 220.938 100.453 210.526 94.445 C 204.800 91.141,200.054 88.440,199.979 88.444 C 199.905 88.447,195.168 91.151,189.453 94.453 M74.626 207.937 C 71.716 208.721,69.188 210.955,67.695 214.063 L 66.719 216.094 66.719 227.656 L 66.719 239.219 67.690 241.250 C 72.837 252.012,87.885 248.774,88.383 236.797 L 88.510 233.750 85.193 233.750 L 81.875 233.750 81.875 235.526 C 81.875 240.860,76.863 243.160,74.135 239.077 L 73.415 237.999 73.504 227.359 C 73.606 215.240,73.631 215.123,76.266 214.333 C 79.345 213.411,81.634 215.441,81.827 219.268 L 81.943 221.563 85.190 221.563 L 88.438 221.563 88.438 219.275 C 88.438 211.323,81.921 205.973,74.626 207.937 M100.297 207.907 C 96.725 208.917,93.650 212.051,92.680 215.670 C 92.216 217.400,92.160 219.066,92.245 228.594 L 92.344 239.531 93.205 241.285 C 97.301 249.622,108.445 249.915,112.844 241.803 L 113.906 239.844 113.906 227.813 L 113.906 215.781 113.083 214.025 C 110.790 209.135,105.279 206.498,100.297 207.907 M209.781 208.063 C 203.118 210.443,202.113 213.164,202.247 228.476 L 202.344 239.531 203.193 241.260 C 208.491 252.049,223.482 248.735,224.010 236.658 L 224.137 233.750 220.819 233.750 L 217.500 233.750 217.500 235.479 C 217.500 240.797,212.064 243.191,209.524 238.991 C 208.623 237.500,208.567 217.965,209.460 216.331 C 211.845 211.966,217.500 214.361,217.500 219.737 L 217.500 221.563 220.824 221.563 L 224.148 221.563 223.993 218.609 C 223.584 210.778,216.629 205.617,209.781 208.063 M297.485 207.906 C 294.445 208.768,291.493 211.517,290.269 214.624 C 288.772 218.426,289.071 238.516,290.671 241.653 C 296.353 252.790,311.534 247.899,311.560 234.922 L 311.563 233.750 308.125 233.750 L 304.688 233.750 304.682 235.703 C 304.668 241.005,299.435 243.189,296.861 238.967 C 295.872 237.345,295.927 218.003,296.926 216.226 C 299.317 211.972,304.686 214.313,304.687 219.609 L 304.688 221.563 308.005 221.563 L 311.323 221.563 311.186 218.516 C 310.845 210.928,304.405 205.941,297.485 207.906 M118.750 227.656 L 118.750 247.188 127.969 247.188 L 137.188 247.188 137.188 243.913 L 137.188 240.639 131.328 240.554 L 125.469 240.469 125.383 235.391 L 125.297 230.313 131.242 230.313 L 137.188 230.313 137.188 227.031 L 137.188 223.750 131.250 223.750 L 125.313 223.750 125.313 219.219 L 125.313 214.688 131.250 214.688 L 137.188 214.688 137.188 211.406 L 137.188 208.125 127.969 208.125 L 118.750 208.125 118.750 227.656 M142.438 226.406 C 142.403 236.461,142.368 245.215,142.359 245.859 L 142.344 247.031 145.703 247.120 L 149.063 247.209 149.063 238.761 L 149.063 230.313 155.000 230.313 L 160.938 230.313 160.938 227.031 L 160.938 223.750 155.000 223.750 L 149.063 223.750 149.063 219.219 L 149.063 214.688 155.000 214.688 L 160.938 214.688 160.938 211.406 L 160.938 208.125 151.719 208.125 L 142.500 208.125 142.438 226.406 M166.770 221.484 C 166.656 228.832,166.563 237.621,166.563 241.016 L 166.563 247.188 170.000 247.188 L 173.438 247.188 173.438 238.750 L 173.438 230.313 179.375 230.313 L 185.313 230.313 185.313 227.031 L 185.313 223.750 179.375 223.750 L 173.438 223.750 173.438 219.219 L 173.438 214.688 179.375 214.688 L 185.313 214.688 185.313 211.406 L 185.313 208.125 176.145 208.125 L 166.977 208.125 166.770 221.484 M190.938 227.656 L 190.938 247.188 194.375 247.188 L 197.813 247.188 197.813 234.269 C 197.813 227.164,197.720 218.375,197.607 214.738 L 197.401 208.125 194.169 208.125 L 190.938 208.125 190.938 227.656 M228.438 227.656 L 228.438 247.188 231.719 247.188 L 235.000 247.188 235.000 227.656 L 235.000 208.125 231.719 208.125 L 228.438 208.125 228.438 227.656 M240.313 227.656 L 240.313 247.188 249.531 247.188 L 258.750 247.188 258.750 243.913 L 258.750 240.639 252.891 240.554 L 247.031 240.469 247.031 235.469 L 247.031 230.469 252.891 230.384 L 258.750 230.299 258.750 227.024 L 258.750 223.750 252.804 223.750 L 246.858 223.750 246.945 219.297 L 247.031 214.844 252.891 214.759 L 258.750 214.674 258.750 211.399 L 258.750 208.125 249.531 208.125 L 240.313 208.125 240.313 227.656 M264.063 227.644 L 264.063 247.188 267.236 247.188 L 270.409 247.188 270.230 237.028 C 270.131 231.441,270.147 226.929,270.265 227.002 C 270.383 227.075,272.587 231.642,275.162 237.151 L 279.844 247.167 282.422 247.177 L 285.000 247.188 285.000 227.656 L 285.000 208.125 281.826 208.125 L 278.652 208.125 278.872 219.140 C 279.011 226.041,278.983 230.039,278.799 229.843 C 278.637 229.672,276.461 224.750,273.963 218.906 L 269.423 208.281 266.743 208.191 L 264.063 208.101 264.063 227.644 M312.500 208.311 C 312.500 208.413,314.188 213.643,316.250 219.934 L 320.000 231.372 320.000 239.280 L 320.000 247.188 323.281 247.188 L 326.563 247.188 326.563 238.935 L 326.563 230.683 330.313 219.675 C 332.375 213.620,334.063 208.544,334.063 208.395 C 334.063 207.809,327.585 208.079,327.427 208.672 C 325.381 216.363,323.278 223.380,323.115 223.065 C 322.998 222.840,322.013 219.387,320.925 215.391 L 318.946 208.125 315.723 208.125 C 313.950 208.125,312.500 208.209,312.500 208.311 M105.598 214.921 C 107.430 216.263,107.499 216.723,107.500 227.614 C 107.500 237.272,107.480 237.608,106.817 238.786 C 104.647 242.647,99.469 241.357,98.907 236.814 C 98.419 232.872,98.868 217.408,99.500 216.363 C 100.817 214.187,103.674 213.512,105.598 214.921 " stroke="none" fill="#f44c2c" fill-rule="evenodd"></path><path id="path1" d="M0.000 160.000 L 0.000 320.000 200.000 320.000 L 400.000 320.000 400.000 160.000 L 400.000 0.000 200.000 0.000 L 0.000 0.000 0.000 160.000 M216.094 44.848 L 232.031 54.061 244.047 54.062 C 251.424 54.062,255.948 54.174,255.766 54.352 C 255.286 54.819,221.749 74.148,221.406 74.155 C 221.234 74.158,216.399 71.443,210.661 68.122 C 201.163 62.624,200.154 62.112,199.411 62.410 C 198.961 62.591,189.102 68.230,177.500 74.942 L 156.406 87.146 156.250 112.651 L 156.094 138.155 144.844 144.658 C 138.656 148.235,133.488 151.103,133.359 151.031 C 133.230 150.959,133.125 133.640,133.125 112.543 L 133.125 74.186 166.484 54.913 C 184.832 44.313,199.914 35.639,200.000 35.638 C 200.086 35.637,207.328 39.782,216.094 44.848 M266.875 112.583 L 266.875 151.103 233.440 170.404 L 200.005 189.706 184.038 180.482 L 168.070 171.257 155.890 171.175 L 143.711 171.094 160.985 161.120 C 170.486 155.634,178.416 151.146,178.607 151.146 C 178.799 151.146,183.622 153.841,189.325 157.135 C 195.029 160.430,199.837 163.125,200.008 163.125 C 200.180 163.125,210.092 157.484,222.034 150.590 L 243.746 138.055 243.826 112.588 L 243.906 87.122 255.156 80.606 C 261.344 77.023,266.512 74.084,266.641 74.077 C 266.770 74.069,266.875 91.397,266.875 112.583 M210.617 94.260 L 221.250 100.395 221.250 112.630 L 221.250 124.864 210.632 131.003 L 200.015 137.141 189.382 130.998 L 178.750 124.854 178.750 112.628 L 178.750 100.402 189.297 94.289 C 195.098 90.927,199.875 88.165,199.914 88.151 C 199.953 88.137,204.769 90.886,210.617 94.260 M80.988 207.832 C 85.372 208.989,88.547 213.686,88.578 219.063 L 88.594 221.719 85.156 221.719 L 81.719 221.719 81.560 219.375 C 81.216 214.303,76.347 212.305,74.146 216.333 C 73.484 217.545,73.133 235.522,73.728 237.732 C 75.140 242.973,81.186 241.588,81.563 235.938 L 81.719 233.594 85.277 233.505 L 88.835 233.416 88.685 236.474 C 88.157 247.277,76.517 251.974,69.447 244.237 C 66.433 240.940,66.162 239.173,66.495 225.000 L 66.719 215.469 67.582 213.711 C 70.049 208.687,75.375 206.351,80.988 207.832 M106.916 207.983 C 110.025 209.080,112.742 211.995,113.787 215.355 C 114.478 217.573,114.675 236.382,114.039 239.347 C 111.837 249.616,97.786 250.917,93.044 241.290 L 92.031 239.234 91.930 229.300 C 91.866 223.039,91.957 218.537,92.176 217.125 C 93.284 209.983,100.283 205.643,106.916 207.983 M216.946 207.994 C 221.570 209.625,224.707 214.874,224.318 220.327 L 224.219 221.719 220.781 221.719 L 217.344 221.719 217.176 219.361 C 216.799 214.063,211.659 212.280,209.553 216.716 C 208.757 218.395,208.842 236.829,209.655 238.617 C 211.696 243.113,217.188 240.829,217.188 235.484 L 217.188 233.438 220.824 233.438 L 224.460 233.438 224.307 236.372 C 223.637 249.166,208.253 252.495,202.871 241.011 L 202.031 239.219 201.930 229.292 C 201.866 223.037,201.957 218.536,202.176 217.125 C 203.304 209.852,210.175 205.605,216.946 207.994 M302.364 207.527 C 307.881 208.537,311.351 212.853,311.388 218.750 L 311.406 221.719 308.125 221.719 L 304.844 221.719 304.755 220.625 C 304.267 214.577,299.750 211.967,297.112 216.209 C 296.120 217.804,295.998 237.372,296.970 238.857 C 299.612 242.888,304.148 240.952,304.597 235.602 L 304.778 233.438 308.207 233.438 L 311.635 233.438 311.512 236.509 C 311.020 248.746,295.718 252.437,290.395 241.602 L 289.531 239.844 289.531 227.813 L 289.531 215.781 290.363 214.008 C 292.184 210.122,295.902 207.510,300.021 207.222 C 300.290 207.203,301.345 207.340,302.364 207.527 M137.188 211.406 L 137.188 215.000 131.406 215.000 L 125.625 215.000 125.625 219.219 L 125.625 223.438 131.365 223.438 L 137.106 223.438 137.263 226.797 C 137.349 228.645,137.359 230.262,137.285 230.391 C 137.211 230.520,134.557 230.625,131.388 230.625 L 125.625 230.625 125.625 235.462 L 125.625 240.299 131.484 240.384 L 137.344 240.469 137.344 243.906 L 137.344 247.344 127.891 247.426 L 118.438 247.509 118.438 227.869 C 118.438 217.067,118.531 208.135,118.646 208.021 C 118.760 207.906,122.979 207.813,128.021 207.813 L 137.188 207.813 137.188 211.406 M160.938 211.406 L 160.938 215.000 155.156 215.000 L 149.375 215.000 149.375 219.219 L 149.375 223.438 155.110 223.438 L 160.845 223.438 161.058 226.731 C 161.331 230.954,161.831 230.625,155.143 230.625 L 149.385 230.625 149.302 238.984 L 149.219 247.344 145.703 247.432 L 142.188 247.520 142.188 227.875 C 142.188 217.070,142.281 208.135,142.396 208.021 C 142.510 207.906,146.729 207.813,151.771 207.813 L 160.938 207.813 160.938 211.406 M185.245 211.484 L 185.333 215.000 179.385 215.000 L 173.438 215.000 173.438 219.219 L 173.438 223.438 179.375 223.438 L 185.313 223.438 185.313 227.031 L 185.313 230.625 179.375 230.625 L 173.438 230.625 173.438 239.063 L 173.438 247.500 170.000 247.500 L 166.563 247.500 166.563 227.865 C 166.563 217.065,166.658 208.133,166.775 208.016 C 166.893 207.899,171.076 207.840,176.072 207.886 L 185.156 207.969 185.245 211.484 M197.737 227.745 L 197.817 247.521 194.299 247.432 L 190.781 247.344 190.787 243.516 C 190.790 241.410,190.825 232.511,190.865 223.739 L 190.938 207.791 194.297 207.880 L 197.656 207.969 197.737 227.745 M235.237 227.745 L 235.317 247.521 231.799 247.432 L 228.281 247.344 228.200 227.969 C 228.156 217.313,228.188 208.413,228.273 208.192 C 228.387 207.892,229.274 207.814,231.791 207.880 L 235.156 207.969 235.237 227.745 M258.914 208.516 C 259.011 208.902,259.049 210.484,258.998 212.031 L 258.906 214.844 253.047 214.929 L 247.188 215.014 247.188 219.226 L 247.188 223.438 252.935 223.438 C 259.636 223.438,259.063 223.055,259.063 227.526 L 259.063 230.625 253.125 230.625 L 247.188 230.625 247.188 235.469 L 247.188 240.313 253.135 240.313 L 259.083 240.313 258.995 243.828 L 258.906 247.344 249.453 247.426 L 240.000 247.509 240.000 227.869 C 240.000 217.067,240.094 208.135,240.208 208.021 C 240.323 207.906,244.539 207.813,249.577 207.813 L 258.738 207.813 258.914 208.516 M273.738 217.830 C 276.065 223.253,278.147 228.035,278.366 228.455 C 278.691 229.082,278.737 227.326,278.623 218.672 L 278.482 208.126 279.163 207.955 C 279.537 207.861,281.039 207.826,282.500 207.877 L 285.156 207.969 285.156 227.656 L 285.156 247.344 282.496 247.433 L 279.836 247.522 276.570 240.558 C 274.774 236.728,272.626 232.188,271.795 230.469 L 270.286 227.344 270.377 237.344 L 270.469 247.344 267.188 247.344 L 263.906 247.344 263.825 227.969 C 263.781 217.313,263.814 208.412,263.898 208.191 C 264.012 207.895,264.774 207.812,266.780 207.878 L 269.508 207.969 273.738 217.830 M318.989 208.203 C 319.162 208.418,320.095 211.504,321.062 215.062 C 322.029 218.619,322.927 221.817,323.057 222.169 C 323.227 222.628,323.876 220.714,325.356 215.388 L 327.419 207.969 330.635 207.879 C 332.405 207.830,333.974 207.912,334.123 208.061 C 334.277 208.215,332.801 212.934,330.723 218.932 L 327.050 229.531 326.885 238.438 L 326.719 247.344 323.203 247.432 L 319.688 247.520 319.688 239.329 L 319.688 231.137 315.938 219.662 C 313.875 213.351,312.188 208.102,312.188 208.000 C 312.188 207.610,318.667 207.804,318.989 208.203 M101.094 214.996 C 99.114 216.299,99.063 216.617,99.063 227.427 C 99.063 235.015,99.159 237.433,99.491 238.213 C 100.879 241.472,104.875 241.801,106.641 238.801 C 107.522 237.305,107.465 217.802,106.575 216.343 C 105.412 214.435,102.889 213.815,101.094 214.996 " stroke="none" fill="#fcfbfb" fill-rule="evenodd"></path><path id="path2" d="M142.260 209.063 C 142.260 209.664,142.324 209.910,142.403 209.609 C 142.482 209.309,142.482 208.816,142.403 208.516 C 142.324 208.215,142.260 208.461,142.260 209.063 M246.998 219.219 C 246.999 221.625,247.048 222.568,247.107 221.314 C 247.167 220.061,247.166 218.092,247.106 216.939 C 247.046 215.787,246.998 216.813,246.998 219.219 M240.143 228.750 C 240.143 235.883,240.184 238.801,240.234 235.234 C 240.284 231.668,240.284 225.832,240.234 222.266 C 240.184 218.699,240.143 221.617,240.143 228.750 M107.304 221.719 C 107.305 223.609,107.357 224.343,107.419 223.348 C 107.481 222.353,107.480 220.807,107.417 219.910 C 107.355 219.014,107.304 219.828,107.304 221.719 M217.277 220.156 C 217.279 221.016,217.340 221.330,217.412 220.855 C 217.484 220.380,217.482 219.677,217.407 219.293 C 217.333 218.908,217.275 219.297,217.277 220.156 M285.141 231.719 C 285.142 238.078,285.183 240.635,285.234 237.401 C 285.285 234.168,285.285 228.964,285.234 225.839 C 285.183 222.713,285.141 225.359,285.141 231.719 M152.109 223.670 C 153.699 223.727,156.301 223.727,157.891 223.670 C 159.480 223.614,158.180 223.567,155.000 223.567 C 151.820 223.567,150.520 223.614,152.109 223.670 M176.344 223.671 C 178.029 223.727,180.701 223.727,182.282 223.670 C 183.863 223.614,182.484 223.567,179.219 223.568 C 175.953 223.568,174.660 223.614,176.344 223.671 M247.001 235.469 C 247.002 238.219,247.050 239.302,247.108 237.876 C 247.166 236.450,247.165 234.200,247.107 232.876 C 247.049 231.552,247.001 232.719,247.001 235.469 M201.978 234.531 C 201.979 235.734,202.035 236.188,202.103 235.540 C 202.171 234.892,202.170 233.907,202.101 233.352 C 202.032 232.798,201.976 233.328,201.978 234.531 M228.189 240.060 C 228.154 243.960,228.230 247.216,228.359 247.296 C 228.488 247.376,228.557 245.310,228.513 242.705 C 228.362 233.849,228.252 232.953,228.189 240.060 M217.273 235.000 C 217.273 235.773,217.334 236.090,217.408 235.703 C 217.483 235.316,217.483 234.684,217.408 234.297 C 217.334 233.910,217.273 234.227,217.273 235.000 M224.159 235.469 C 224.161 236.500,224.219 236.884,224.289 236.323 C 224.359 235.761,224.357 234.917,224.286 234.448 C 224.214 233.978,224.158 234.438,224.159 235.469 M270.385 242.188 C 270.385 242.789,270.449 243.035,270.528 242.734 C 270.607 242.434,270.607 241.941,270.528 241.641 C 270.449 241.340,270.385 241.586,270.385 242.188 M326.659 245.469 C 326.661 246.500,326.719 246.884,326.789 246.323 C 326.859 245.761,326.857 244.917,326.786 244.448 C 326.714 243.978,326.658 244.438,326.659 245.469 " stroke="none" fill="#fcbaaf" fill-rule="evenodd"></path><path id="path3" d="M123.203 208.046 C 125.738 208.099,129.887 208.099,132.422 208.046 C 134.957 207.994,132.883 207.951,127.813 207.951 C 122.742 207.951,120.668 207.994,123.203 208.046 M147.285 208.046 C 149.830 208.099,153.909 208.099,156.347 208.046 C 158.786 207.993,156.703 207.950,151.719 207.950 C 146.734 207.951,144.739 207.994,147.285 208.046 M171.328 208.046 C 173.863 208.099,178.012 208.099,180.547 208.046 C 183.082 207.994,181.008 207.951,175.938 207.951 C 170.867 207.951,168.793 207.994,171.328 208.046 M192.734 208.043 C 193.637 208.106,195.113 208.106,196.016 208.043 C 196.918 207.980,196.180 207.928,194.375 207.928 C 192.570 207.928,191.832 207.980,192.734 208.043 M230.234 208.043 C 231.137 208.106,232.613 208.106,233.516 208.043 C 234.418 207.980,233.680 207.928,231.875 207.928 C 230.070 207.928,229.332 207.980,230.234 208.043 M245.097 208.046 C 247.643 208.099,251.721 208.099,254.160 208.046 C 256.598 207.993,254.516 207.950,249.531 207.950 C 244.547 207.951,242.552 207.994,245.097 208.046 M265.547 208.041 C 266.277 208.107,267.473 208.107,268.203 208.041 C 268.934 207.976,268.336 207.922,266.875 207.922 C 265.414 207.922,264.816 207.976,265.547 208.041 M280.391 208.042 C 281.207 208.107,282.543 208.107,283.359 208.042 C 284.176 207.978,283.508 207.925,281.875 207.925 C 280.242 207.925,279.574 207.978,280.391 208.042 M313.984 208.043 C 314.887 208.106,316.363 208.106,317.266 208.043 C 318.168 207.980,317.430 207.928,315.625 207.928 C 313.820 207.928,313.082 207.980,313.984 208.043 M329.297 208.043 C 330.199 208.106,331.676 208.106,332.578 208.043 C 333.480 207.980,332.742 207.928,330.938 207.928 C 329.133 207.928,328.395 207.980,329.297 208.043 M228.242 211.719 C 228.243 213.609,228.294 214.343,228.356 213.348 C 228.418 212.353,228.418 210.807,228.355 209.910 C 228.292 209.014,228.241 209.828,228.242 211.719 M125.455 219.296 L 125.469 223.594 131.094 223.604 L 136.719 223.615 131.181 223.519 L 125.643 223.423 125.542 219.211 L 125.441 214.999 125.455 219.296 M149.186 219.219 C 149.186 221.625,149.235 222.568,149.295 221.314 C 149.354 220.061,149.354 218.092,149.294 216.939 C 149.234 215.787,149.185 216.813,149.186 219.219 M81.652 219.844 C 81.654 220.703,81.715 221.018,81.787 220.543 C 81.859 220.068,81.857 219.364,81.782 218.980 C 81.708 218.596,81.650 218.984,81.652 219.844 M224.152 219.844 C 224.154 220.703,224.215 221.018,224.287 220.543 C 224.359 220.068,224.357 219.364,224.282 218.980 C 224.208 218.596,224.150 218.984,224.152 219.844 M201.988 221.563 C 201.988 223.195,202.040 223.863,202.105 223.047 C 202.169 222.230,202.169 220.895,202.105 220.078 C 202.040 219.262,201.988 219.930,201.988 221.563 M91.986 225.156 C 91.985 226.703,92.038 227.375,92.103 226.650 C 92.169 225.925,92.170 224.659,92.105 223.838 C 92.040 223.016,91.987 223.609,91.986 225.156 M249.922 223.670 C 251.512 223.727,254.113 223.727,255.703 223.670 C 257.293 223.614,255.992 223.567,252.813 223.567 C 249.633 223.567,248.332 223.614,249.922 223.670 M258.829 227.344 C 258.832 228.031,258.896 228.276,258.971 227.887 C 259.046 227.498,259.043 226.936,258.965 226.637 C 258.886 226.338,258.825 226.656,258.829 227.344 M125.439 235.469 C 125.439 238.219,125.487 239.302,125.545 237.876 C 125.603 236.450,125.603 234.200,125.545 232.876 C 125.486 231.552,125.439 232.719,125.439 235.469 M149.199 238.906 C 149.199 243.547,149.243 245.489,149.296 243.222 C 149.349 240.955,149.349 237.158,149.296 234.784 C 149.243 232.411,149.199 234.266,149.199 238.906 M326.672 233.438 C 326.672 234.898,326.726 235.496,326.791 234.766 C 326.857 234.035,326.857 232.840,326.791 232.109 C 326.726 231.379,326.672 231.977,326.672 233.438 M107.284 234.844 C 107.286 235.875,107.344 236.259,107.414 235.698 C 107.484 235.136,107.482 234.292,107.411 233.823 C 107.339 233.353,107.283 233.813,107.284 234.844 M81.648 235.313 C 81.648 236.086,81.709 236.402,81.783 236.016 C 81.858 235.629,81.858 234.996,81.783 234.609 C 81.709 234.223,81.648 234.539,81.648 235.313 " stroke="none" fill="#fcdad2" fill-rule="evenodd"></path><path id="path4" d="M178.892 112.656 C 178.892 119.359,178.934 122.057,178.984 118.651 C 179.035 115.245,179.034 109.761,178.984 106.464 C 178.933 103.166,178.892 105.953,178.892 112.656 M221.080 112.656 C 221.080 119.359,221.121 122.057,221.172 118.651 C 221.222 115.245,221.222 109.761,221.171 106.464 C 221.121 103.166,221.080 105.953,221.080 112.656 M118.571 215.313 C 118.571 219.180,118.616 220.762,118.671 218.828 C 118.726 216.895,118.726 213.730,118.671 211.797 C 118.616 209.863,118.571 211.445,118.571 215.313 M235.135 215.938 C 235.135 220.148,235.179 221.871,235.233 219.766 C 235.288 217.660,235.288 214.215,235.233 212.109 C 235.179 210.004,235.135 211.727,235.135 215.938 M142.312 214.531 C 142.313 217.109,142.361 218.122,142.420 216.783 C 142.479 215.443,142.478 213.333,142.419 212.095 C 142.360 210.857,142.312 211.953,142.312 214.531 M88.527 219.844 C 88.529 220.703,88.590 221.018,88.662 220.543 C 88.734 220.068,88.732 219.364,88.657 218.980 C 88.583 218.596,88.525 218.984,88.527 219.844 M114.182 222.344 C 114.182 224.406,114.233 225.209,114.294 224.128 C 114.355 223.047,114.355 221.360,114.293 220.378 C 114.231 219.397,114.181 220.281,114.182 222.344 M278.829 228.281 C 278.832 228.969,278.896 229.213,278.971 228.824 C 279.046 228.436,279.043 227.873,278.965 227.574 C 278.886 227.276,278.825 227.594,278.829 228.281 M263.887 238.281 C 263.888 243.094,263.931 245.019,263.984 242.559 C 264.037 240.100,264.037 236.162,263.983 233.809 C 263.930 231.456,263.887 233.469,263.887 238.281 M319.793 233.125 C 319.793 234.414,319.848 234.941,319.915 234.297 C 319.983 233.652,319.983 232.598,319.915 231.953 C 319.848 231.309,319.793 231.836,319.793 233.125 M240.111 244.219 C 240.110 245.766,240.163 246.438,240.228 245.713 C 240.294 244.987,240.295 243.722,240.230 242.900 C 240.165 242.078,240.112 242.672,240.111 244.219 M285.100 245.000 C 285.100 246.117,285.157 246.574,285.226 246.016 C 285.295 245.457,285.295 244.543,285.226 243.984 C 285.157 243.426,285.100 243.883,285.100 245.000 M123.203 247.421 C 125.738 247.474,129.887 247.474,132.422 247.421 C 134.957 247.369,132.883 247.326,127.813 247.326 C 122.742 247.326,120.668 247.369,123.203 247.421 M143.984 247.418 C 144.887 247.481,146.363 247.481,147.266 247.418 C 148.168 247.355,147.430 247.303,145.625 247.303 C 143.820 247.303,143.082 247.355,143.984 247.418 M168.359 247.418 C 169.262 247.481,170.738 247.481,171.641 247.418 C 172.543 247.355,171.805 247.303,170.000 247.303 C 168.195 247.303,167.457 247.355,168.359 247.418 M192.734 247.418 C 193.637 247.481,195.113 247.481,196.016 247.418 C 196.918 247.355,196.180 247.303,194.375 247.303 C 192.570 247.303,191.832 247.355,192.734 247.418 M230.234 247.418 C 231.137 247.481,232.613 247.481,233.516 247.418 C 234.418 247.355,233.680 247.303,231.875 247.303 C 230.070 247.303,229.332 247.355,230.234 247.418 M244.766 247.421 C 247.301 247.474,251.449 247.474,253.984 247.421 C 256.520 247.369,254.445 247.326,249.375 247.326 C 244.305 247.326,242.230 247.369,244.766 247.421 M265.703 247.417 C 266.520 247.482,267.855 247.482,268.672 247.417 C 269.488 247.353,268.820 247.300,267.188 247.300 C 265.555 247.300,264.887 247.353,265.703 247.417 M281.172 247.416 C 281.902 247.482,283.098 247.482,283.828 247.416 C 284.559 247.351,283.961 247.297,282.500 247.297 C 281.039 247.297,280.441 247.351,281.172 247.416 M321.652 247.419 C 322.647 247.481,324.193 247.480,325.090 247.417 C 325.986 247.355,325.172 247.304,323.281 247.304 C 321.391 247.305,320.657 247.357,321.652 247.419 " stroke="none" fill="#fca494" fill-rule="evenodd"></path><path id="path5" d="M240.121 212.031 C 240.122 214.266,240.172 215.139,240.232 213.971 C 240.292 212.804,240.292 210.976,240.231 209.909 C 240.170 208.842,240.121 209.797,240.121 212.031 M285.131 214.375 C 285.131 217.727,285.177 219.098,285.233 217.422 C 285.289 215.746,285.289 213.004,285.233 211.328 C 285.177 209.652,285.131 211.023,285.131 214.375 M228.263 224.063 C 228.263 229.133,228.306 231.207,228.359 228.672 C 228.411 226.137,228.411 221.988,228.359 219.453 C 228.306 216.918,228.263 218.992,228.263 224.063 M201.997 228.438 C 201.997 230.758,202.047 231.707,202.107 230.547 C 202.167 229.387,202.167 227.488,202.107 226.328 C 202.047 225.168,201.997 226.117,201.997 228.438 M107.310 229.063 C 107.310 231.383,107.359 232.332,107.419 231.172 C 107.479 230.012,107.479 228.113,107.419 226.953 C 107.359 225.793,107.310 226.742,107.310 229.063 M91.996 231.719 C 91.997 233.953,92.047 234.826,92.107 233.659 C 92.167 232.492,92.167 230.663,92.106 229.596 C 92.045 228.529,91.996 229.484,91.996 231.719 M258.823 229.375 C 258.823 229.977,258.887 230.223,258.965 229.922 C 259.044 229.621,259.044 229.129,258.965 228.828 C 258.887 228.527,258.823 228.773,258.823 229.375 M326.684 239.844 C 326.684 242.078,326.734 242.951,326.795 241.784 C 326.855 240.617,326.854 238.788,326.794 237.721 C 326.733 236.654,326.683 237.609,326.684 239.844 M258.867 243.906 C 258.868 245.797,258.919 246.530,258.981 245.535 C 259.043 244.541,259.043 242.994,258.980 242.098 C 258.917 241.202,258.866 242.016,258.867 243.906 " stroke="none" fill="#fcccc4" fill-rule="evenodd"></path><path id="path6" d="M144.170 171.016 C 144.091 171.145,149.483 171.219,156.153 171.181 C 162.824 171.144,166.383 171.074,164.063 171.027 C 153.348 170.807,144.302 170.802,144.170 171.016 M166.700 217.031 C 166.701 222.016,166.744 224.011,166.796 221.465 C 166.849 218.920,166.849 214.841,166.796 212.403 C 166.743 209.964,166.700 212.047,166.700 217.031 M197.624 212.500 C 197.624 214.992,197.673 216.012,197.732 214.766 C 197.791 213.520,197.791 211.480,197.732 210.234 C 197.673 208.988,197.624 210.008,197.624 212.500 M263.890 219.063 C 263.890 224.992,263.933 227.418,263.984 224.453 C 264.035 221.488,264.035 216.637,263.984 213.672 C 263.933 210.707,263.890 213.133,263.890 219.063 M128.219 214.921 C 129.904 214.977,132.576 214.977,134.157 214.920 C 135.738 214.864,134.359 214.817,131.094 214.818 C 127.828 214.818,126.535 214.864,128.219 214.921 M151.969 214.921 C 153.654 214.977,156.326 214.977,157.907 214.920 C 159.488 214.864,158.109 214.817,154.844 214.818 C 151.578 214.818,150.285 214.864,151.969 214.921 M176.344 214.921 C 178.029 214.977,180.701 214.977,182.282 214.920 C 183.863 214.864,182.484 214.817,179.219 214.818 C 175.953 214.818,174.660 214.864,176.344 214.921 M250.094 214.921 C 251.779 214.977,254.451 214.977,256.032 214.920 C 257.613 214.864,256.234 214.817,252.969 214.818 C 249.703 214.818,248.410 214.864,250.094 214.921 M98.888 227.656 C 98.888 232.813,98.931 234.966,98.984 232.441 C 99.036 229.917,99.036 225.698,98.984 223.066 C 98.932 220.434,98.889 222.500,98.888 227.656 M208.888 227.656 C 208.888 232.813,208.931 234.966,208.984 232.441 C 209.036 229.917,209.036 225.698,208.984 223.066 C 208.932 220.434,208.889 222.500,208.888 227.656 M311.344 220.000 C 311.344 220.945,311.402 221.332,311.474 220.859 C 311.545 220.387,311.545 219.613,311.474 219.141 C 311.402 218.668,311.344 219.055,311.344 220.000 M142.330 231.875 C 142.330 239.008,142.371 241.926,142.422 238.359 C 142.472 234.793,142.472 228.957,142.422 225.391 C 142.371 221.824,142.330 224.742,142.330 231.875 M278.863 224.375 C 278.863 226.008,278.915 226.676,278.980 225.859 C 279.044 225.043,279.044 223.707,278.980 222.891 C 278.915 222.074,278.863 222.742,278.863 224.375 M118.580 234.688 C 118.580 241.648,118.621 244.496,118.672 241.016 C 118.722 237.535,118.722 231.840,118.672 228.359 C 118.621 224.879,118.580 227.727,118.580 234.688 M235.142 235.313 C 235.142 241.930,235.183 244.637,235.234 241.328 C 235.285 238.020,235.285 232.605,235.234 229.297 C 235.183 225.988,235.142 228.695,235.142 235.313 M114.193 231.719 C 114.193 234.984,114.239 236.278,114.296 234.593 C 114.352 232.908,114.352 230.237,114.295 228.656 C 114.239 227.075,114.192 228.453,114.193 231.719 M270.100 230.313 C 270.100 231.430,270.157 231.887,270.226 231.328 C 270.295 230.770,270.295 229.855,270.226 229.297 C 270.157 228.738,270.100 229.195,270.100 230.313 M128.203 230.545 C 129.879 230.602,132.621 230.602,134.297 230.545 C 135.973 230.489,134.602 230.443,131.250 230.443 C 127.898 230.443,126.527 230.489,128.203 230.545 M151.953 230.545 C 153.629 230.602,156.371 230.602,158.047 230.545 C 159.723 230.489,158.352 230.443,155.000 230.443 C 151.648 230.443,150.277 230.489,151.953 230.545 M176.344 230.546 C 178.029 230.602,180.701 230.602,182.282 230.545 C 183.863 230.489,182.484 230.442,179.219 230.443 C 175.953 230.443,174.660 230.489,176.344 230.546 M250.094 230.546 C 251.779 230.602,254.451 230.602,256.032 230.545 C 257.613 230.489,256.234 230.442,252.969 230.443 C 249.703 230.443,248.410 230.489,250.094 230.546 M85.063 233.665 L 88.407 233.771 88.526 235.481 L 88.645 237.191 88.619 235.392 L 88.594 233.594 85.156 233.576 L 81.719 233.559 85.063 233.665 M219.152 233.669 C 220.147 233.731,221.693 233.730,222.590 233.667 C 223.486 233.605,222.672 233.554,220.781 233.554 C 218.891 233.555,218.157 233.607,219.152 233.669 M306.484 233.668 C 307.387 233.731,308.863 233.731,309.766 233.668 C 310.668 233.605,309.930 233.553,308.125 233.553 C 306.320 233.553,305.582 233.605,306.484 233.668 M319.818 241.250 C 319.818 244.602,319.864 245.973,319.920 244.297 C 319.977 242.621,319.977 239.879,319.920 238.203 C 319.864 236.527,319.818 237.898,319.818 241.250 M128.532 240.546 C 130.217 240.602,132.888 240.602,134.469 240.545 C 136.050 240.489,134.672 240.442,131.406 240.443 C 128.141 240.443,126.847 240.489,128.532 240.546 M250.094 240.546 C 251.779 240.602,254.451 240.602,256.032 240.545 C 257.613 240.489,256.234 240.442,252.969 240.443 C 249.703 240.443,248.410 240.489,250.094 240.546 M270.402 245.781 C 270.404 246.641,270.465 246.955,270.537 246.480 C 270.609 246.005,270.607 245.302,270.532 244.918 C 270.458 244.533,270.400 244.922,270.402 245.781 " stroke="none" fill="#fca48c" fill-rule="evenodd"></path><path id="path7" d="M133.200 112.403 C 133.159 133.577,133.230 150.966,133.359 151.046 C 133.571 151.177,133.570 124.525,133.356 87.813 C 133.311 80.164,133.241 91.230,133.200 112.403 M266.714 112.656 C 266.714 133.969,266.751 142.641,266.797 131.929 C 266.842 121.216,266.842 103.779,266.797 93.179 C 266.751 82.579,266.714 91.344,266.714 112.656 M258.866 211.563 C 258.866 213.367,258.917 214.105,258.980 213.203 C 259.044 212.301,259.044 210.824,258.980 209.922 C 258.917 209.020,258.866 209.758,258.866 211.563 M278.510 212.813 C 278.510 213.414,278.574 213.660,278.653 213.359 C 278.732 213.059,278.732 212.566,278.653 212.266 C 278.574 211.965,278.510 212.211,278.510 212.813 M91.954 219.219 C 91.957 219.906,92.021 220.151,92.096 219.762 C 92.171 219.373,92.168 218.811,92.090 218.512 C 92.011 218.213,91.950 218.531,91.954 219.219 M81.838 221.652 C 81.974 221.787,83.550 221.857,85.340 221.807 L 88.594 221.715 85.092 221.561 C 83.167 221.476,81.702 221.517,81.838 221.652 M219.152 221.794 C 220.147 221.856,221.693 221.855,222.590 221.792 C 223.486 221.730,222.672 221.679,220.781 221.679 C 218.891 221.680,218.157 221.732,219.152 221.794 M306.484 221.793 C 307.387 221.856,308.863 221.856,309.766 221.793 C 310.668 221.730,309.930 221.678,308.125 221.678 C 306.320 221.678,305.582 221.730,306.484 221.793 M161.027 228.906 C 161.029 229.766,161.090 230.080,161.162 229.605 C 161.234 229.130,161.232 228.427,161.157 228.043 C 161.083 227.658,161.025 228.047,161.027 228.906 M66.363 233.750 C 66.363 235.383,66.415 236.051,66.480 235.234 C 66.544 234.418,66.544 233.082,66.480 232.266 C 66.415 231.449,66.363 232.117,66.363 233.750 M190.745 243.438 C 190.745 245.586,190.795 246.465,190.856 245.391 C 190.917 244.316,190.917 242.559,190.856 241.484 C 190.795 240.410,190.745 241.289,190.745 243.438 M137.304 243.906 C 137.305 245.797,137.357 246.530,137.419 245.535 C 137.481 244.541,137.480 242.994,137.417 242.098 C 137.355 241.202,137.304 242.016,137.304 243.906 " stroke="none" fill="#fce5e1" fill-rule="evenodd"></path><path id="path8" d="M243.899 112.500 C 243.899 126.508,243.937 132.238,243.984 125.234 C 244.031 118.230,244.031 106.770,243.984 99.766 C 243.937 92.762,243.899 98.492,243.899 112.500 M156.086 112.656 C 156.086 126.578,156.125 132.319,156.172 125.414 C 156.219 118.509,156.219 107.118,156.172 100.101 C 156.125 93.085,156.087 98.734,156.086 112.656 M91.954 221.406 C 91.957 222.094,92.021 222.338,92.096 221.949 C 92.171 221.561,92.168 220.998,92.090 220.699 C 92.011 220.401,91.950 220.719,91.954 221.406 " stroke="none" fill="#fcdcdc" fill-rule="evenodd"></path></g></svg>